<svg xmlns="http://www.w3.org/2000/svg" xmlns:xlink="http://www.w3.org/1999/xlink" version="1.1" x="0px" y="0px" viewBox="0 0 32 40" style="enable-background:new 0 0 32 32;" xml:space="preserve"><g><path d="M20.9,16c0,0.6-0.4,1-1,1h-7.8c-0.6,0-1-0.4-1-1s0.4-1,1-1h7.8C20.4,15,20.9,15.4,20.9,16z"/><path d="M19.9,18.4h-7.8c-0.6,0-1,0.4-1,1c0,0.6,0.4,1,1,1h7.8c0.6,0,1-0.4,1-1C20.9,18.9,20.4,18.4,19.9,18.4z"/><path d="M19.9,11.6h-7.8c-0.6,0-1,0.4-1,1c0,0.6,0.4,1,1,1h7.8c0.6,0,1-0.4,1-1C20.9,12,20.4,11.6,19.9,11.6z"/><path d="M29,23.8h-1.4v-1.4c0-0.6-0.4-1-1-1c-0.4,0-0.8,0.3-0.9,0.6h-0.5v-1.6c0-0.3-0.1-0.5-0.3-0.7l-1-0.9l1-0.9   c0.2-0.2,0.3-0.5,0.3-0.7V10h0.5c0.1,0.4,0.5,0.6,0.9,0.6c0.6,0,1-0.4,1-1V8.2H29c0.6,0,1-0.4,1-1c0-0.6-0.4-1-1-1h-1.4V4.8   c0-0.6-0.4-1-1-1c-0.4,0-0.8,0.3-0.9,0.6H6.4C6.2,4.1,5.9,3.8,5.4,3.8c-0.6,0-1,0.4-1,1v1.4H3c-0.6,0-1,0.4-1,1c0,0.6,0.4,1,1,1   h1.4v1.4c0,0.6,0.4,1,1,1c0.4,0,0.8-0.3,0.9-0.6h0.5v2.5c0,0.3,0.1,0.5,0.3,0.7l1,0.9l-1,0.9c-0.2,0.2-0.3,0.4-0.3,0.7V22H6.4   c-0.1-0.4-0.5-0.6-0.9-0.6c-0.6,0-1,0.4-1,1v1.4H3c-0.6,0-1,0.4-1,1c0,0.6,0.4,1,1,1h1.4v1.4c0,0.6,0.4,1,1,1   c0.4,0,0.8-0.3,0.9-0.6h19.3c0.1,0.4,0.5,0.6,0.9,0.6c0.6,0,1-0.4,1-1v-1.4H29c0.6,0,1-0.4,1-1C30,24.2,29.6,23.8,29,23.8z    M6.4,6.4h19.1V8H6.4V6.4z M8.9,16.2l1.4-1.3c0.4-0.4,0.4-1.1,0-1.5l-1.4-1.3v-2h14.3v6.7L21.7,18c-0.4,0.4-0.4,1.1,0,1.5l1.4,1.3   V22H8.9V16.2z M6.4,25.6V24h19.1v1.6H6.4z"/></g><text x="0" y="47" fill="#000000" font-size="5px" font-weight="bold" font-family="'Helvetica Neue', Helvetica, Arial-Unicode, Arial, Sans-serif">Created by Riyan Resdian</text><text x="0" y="52" fill="#000000" font-size="5px" font-weight="bold" font-family="'Helvetica Neue', Helvetica, Arial-Unicode, Arial, Sans-serif">from the Noun Project</text></svg>