<svg xmlns="http://www.w3.org/2000/svg" xmlns:xlink="http://www.w3.org/1999/xlink" version="1.1" x="0px" y="0px" viewBox="0 0 32 40" style="enable-background:new 0 0 32 32;" xml:space="preserve"><path d="M11.1,14.5h7.5c0.6,0,1-0.4,1-1s-0.4-1-1-1h-7.5c-0.6,0-1,0.4-1,1S10.5,14.5,11.1,14.5z"/><path d="M11.1,10.7h7.5c0.6,0,1-0.4,1-1s-0.4-1-1-1h-7.5c-0.6,0-1,0.4-1,1S10.5,10.7,11.1,10.7z"/><path d="M15.8,17.2c0-0.6-0.4-1-1-1h-3.8c-0.6,0-1,0.4-1,1s0.4,1,1,1h3.8C15.4,18.2,15.8,17.8,15.8,17.2z"/><path d="M30,14.2c0-0.7-0.5-1.3-1.3-1.5c-1.8-0.4-3.7-0.3-5.4,0.2V6.5c0-1.7-1.4-3.1-3.1-3.1c-0.1,0-15,0-15.1,0  C3.4,3.4,2,4.8,2,6.5v2.6c0,0.7,0.6,1.3,1.3,1.3h3v17.2c0,0.6,0.4,1,1,1h15c0.3,0,0.5-0.1,0.7-0.3s0.3-0.4,0.3-0.7v-5.3  c1-0.4,1.9-0.9,2.8-1.5c0.7-0.5,1.2-1,1.7-1.5c0.3-0.3,0.3-0.8,0.1-1.1c0.4,0,0.8-0.1,1.1-0.5C29.7,16.5,30,15.3,30,14.2z M20.8,21  c0.9-0.9,1.9-1.7,3-2.5c0.4-0.3,0.5-1,0.2-1.4s-1-0.5-1.4-0.2c-1.3,1-2.4,2-3.5,3c0.2-1.3,0.9-2.6,2.1-3.6c1.8-1.5,4.5-2.2,6.9-1.7  c0,0.5-0.2,1-0.4,1.5c-0.5,0-1,0.1-1.5,0.1c-0.4,0-0.7,0.3-0.8,0.6c-0.1,0.3-0.1,0.7,0.1,1c0.2,0.2,0.3,0.4,0.4,0.6  c-0.3,0.2-0.6,0.5-0.9,0.7C23.6,20.1,22.2,20.7,20.8,21z M4,6.5c0-0.6,0.5-1.1,1.2-1.1h0c0.6,0,1.1,0.5,1.1,1.1v1.9H4V6.5z   M21.3,26.6h-13V6.5c0-0.4-0.1-0.8-0.2-1.1c0,0,12.1,0,12.2,0c0.6,0,1.1,0.5,1.1,1.1v7.2c-0.5,0.3-1,0.6-1.5,1  c-2.3,1.9-3.3,4.6-2.7,7.2c-0.6,0.7-1.3,1.5-1.9,2.3c-0.3,0.4-0.2,1.1,0.2,1.4c0.2,0.1,0.4,0.2,0.6,0.2c0.3,0,0.6-0.1,0.8-0.4  c0.6-0.8,1.2-1.6,1.9-2.3c0.1,0,0.2,0,0.3,0c0.8,0,1.6-0.1,2.3-0.3L21.3,26.6z"/><text x="0" y="47" fill="#000000" font-size="5px" font-weight="bold" font-family="'Helvetica Neue', Helvetica, Arial-Unicode, Arial, Sans-serif">Created by Riyan Resdian</text><text x="0" y="52" fill="#000000" font-size="5px" font-weight="bold" font-family="'Helvetica Neue', Helvetica, Arial-Unicode, Arial, Sans-serif">from the Noun Project</text></svg>