<svg xmlns="http://www.w3.org/2000/svg" xmlns:xlink="http://www.w3.org/1999/xlink" version="1.1" x="0px" y="0px" viewBox="0 0 32 40" style="enable-background:new 0 0 32 32;" xml:space="preserve"><style type="text/css">
	.st0{fill:none;}
</style><g><path d="M28.961,16.08c0.942-0.918,1.274-2.265,0.868-3.515s-1.467-2.145-2.768-2.334l-4.775-0.694   c-0.465-0.067-0.868-0.36-1.076-0.781l-2.136-4.328C18.493,3.25,17.315,2.517,16,2.517s-2.493,0.732-3.075,1.912L10.79,8.755   c-0.208,0.422-0.611,0.714-1.077,0.782l-4.775,0.694c-1.301,0.189-2.362,1.083-2.768,2.334s-0.074,2.597,0.868,3.515l3.456,3.369   c0.337,0.328,0.491,0.801,0.411,1.265l-0.816,4.756c-0.222,1.296,0.301,2.581,1.365,3.354c1.166,0.847,2.62,0.782,3.611,0.261   l4.271-2.245c0.417-0.22,0.914-0.219,1.33,0l4.271,2.245c1.163,0.61,2.546,0.512,3.611-0.261c1.064-0.773,1.587-2.058,1.365-3.354   l-0.816-4.756c-0.08-0.463,0.074-0.936,0.412-1.265L28.961,16.08z"/></g><text x="0" y="47" fill="#000000" font-size="5px" font-weight="bold" font-family="'Helvetica Neue', Helvetica, Arial-Unicode, Arial, Sans-serif">Created by Riyan Resdian</text><text x="0" y="52" fill="#000000" font-size="5px" font-weight="bold" font-family="'Helvetica Neue', Helvetica, Arial-Unicode, Arial, Sans-serif">from the Noun Project</text></svg>