<svg xmlns="http://www.w3.org/2000/svg" xmlns:xlink="http://www.w3.org/1999/xlink" version="1.1" x="0px" y="0px" viewBox="0 0 32 40" style="enable-background:new 0 0 32 32;" xml:space="preserve"><g><path d="M28.036,12.832l-0.469-0.172c-0.27-0.094-0.483-0.304-0.581-0.572c-0.132-0.369-0.282-0.732-0.45-1.086   c-0.12-0.26-0.118-0.559,0.006-0.817l0.209-0.454c0.526-1.142,0.287-2.49-0.6-3.381l-0.5-0.5c-0.891-0.887-2.239-1.126-3.381-0.6   l-0.454,0.21C21.559,5.584,21.259,5.587,21,5.467c-0.356-0.169-0.721-0.32-1.093-0.451c-0.268-0.099-0.477-0.312-0.571-0.581   l-0.172-0.469C18.728,2.787,17.605,2.003,16.348,2h-0.7c-1.258,0.002-2.381,0.786-2.818,1.966l-0.172,0.469   c-0.094,0.269-0.304,0.483-0.572,0.581C11.717,5.148,11.354,5.298,11,5.466c-0.259,0.119-0.558,0.116-0.815-0.008L9.731,5.249   c-1.142-0.526-2.49-0.287-3.381,0.6l-0.5,0.5C4.964,7.24,4.724,8.588,5.25,9.73l0.21,0.454C5.584,10.441,5.586,10.741,5.467,11   c-0.169,0.356-0.32,0.721-0.451,1.093c-0.099,0.268-0.312,0.477-0.581,0.571l-0.469,0.172C2.787,13.272,2.003,14.395,2,15.652v0.7   c0.002,1.258,0.786,2.381,1.966,2.818l0.469,0.172c0.269,0.094,0.483,0.304,0.581,0.572c0.132,0.369,0.282,0.732,0.45,1.086   c0.119,0.259,0.116,0.558-0.008,0.815l-0.209,0.454c-0.526,1.142-0.287,2.49,0.6,3.381l0.5,0.5c0.892,0.885,2.239,1.125,3.381,0.6   l0.454-0.21c0.257-0.124,0.557-0.126,0.816-0.007c0.356,0.169,0.721,0.32,1.093,0.451c0.268,0.099,0.477,0.312,0.571,0.581   l0.172,0.469c0.436,1.179,1.559,1.963,2.816,1.966h0.7c1.258-0.002,2.381-0.786,2.818-1.966l0.172-0.469   c0.094-0.269,0.304-0.483,0.572-0.581c0.369-0.132,0.732-0.282,1.086-0.45c0.259-0.119,0.558-0.116,0.815,0.008l0.454,0.209   c1.141,0.529,2.491,0.289,3.381-0.6l0.5-0.5c0.886-0.891,1.125-2.239,0.6-3.381l-0.21-0.454c-0.124-0.257-0.126-0.557-0.007-0.816   c0.169-0.356,0.32-0.721,0.451-1.093c0.099-0.268,0.312-0.477,0.581-0.571l0.469-0.172c1.179-0.436,1.963-1.559,1.966-2.816v-0.7   C29.997,14.391,29.214,13.269,28.036,12.832z M28,16.352c0.001,0.42-0.261,0.796-0.655,0.941l-0.469,0.171   c-0.827,0.299-1.478,0.95-1.776,1.778c-0.11,0.307-0.234,0.607-0.373,0.9c-0.374,0.797-0.374,1.718,0,2.515l0.211,0.454   c0.176,0.38,0.096,0.83-0.2,1.127l-0.5,0.5c-0.297,0.296-0.747,0.376-1.127,0.2l-0.454-0.21c-0.797-0.374-1.719-0.374-2.516,0   c-0.294,0.138-0.594,0.262-0.9,0.372c-0.83,0.296-1.484,0.948-1.783,1.776l-0.171,0.469C17.142,27.739,16.767,28,16.348,28h-0.7   c-0.419,0-0.794-0.261-0.939-0.655l-0.171-0.469c-0.299-0.827-0.95-1.478-1.778-1.776c-0.307-0.11-0.607-0.234-0.9-0.373   c-0.392-0.186-0.821-0.282-1.255-0.282c-0.436,0.001-0.867,0.098-1.262,0.282l-0.454,0.211c-0.38,0.176-0.83,0.096-1.127-0.2   l-0.5-0.5c-0.296-0.297-0.376-0.747-0.2-1.127l0.21-0.454c0.374-0.797,0.374-1.719,0-2.516c-0.138-0.294-0.262-0.594-0.372-0.9   c-0.296-0.83-0.948-1.484-1.776-1.783l-0.469-0.171C4.261,17.142,4,16.767,4,16.348v-0.7c-0.001-0.42,0.261-0.796,0.655-0.941   l0.469-0.171c0.827-0.299,1.478-0.95,1.776-1.778c0.11-0.307,0.234-0.607,0.373-0.9c0.374-0.797,0.374-1.718,0-2.515L7.062,8.889   c-0.176-0.38-0.096-0.83,0.2-1.127l0.5-0.5c0.297-0.296,0.747-0.376,1.127-0.2l0.454,0.21c0.797,0.374,1.719,0.374,2.516,0   c0.294-0.138,0.594-0.262,0.9-0.372c0.83-0.296,1.484-0.948,1.783-1.776l0.171-0.469C14.858,4.261,15.233,4,15.652,4h0.7   c0.42-0.001,0.796,0.261,0.941,0.655l0.171,0.469c0.299,0.827,0.95,1.478,1.778,1.776c0.307,0.11,0.607,0.234,0.9,0.373   c0.797,0.374,1.718,0.374,2.515,0l0.454-0.211c0.381-0.174,0.83-0.095,1.127,0.2l0.5,0.5c0.296,0.297,0.376,0.747,0.2,1.127   l-0.21,0.454c-0.374,0.797-0.374,1.719,0,2.516c0.138,0.294,0.262,0.594,0.372,0.9c0.296,0.83,0.948,1.484,1.776,1.783l0.469,0.171   C27.739,14.858,28,15.233,28,15.652V16.352z"/><path d="M16,10.64c-2.96,0-5.36,2.4-5.36,5.36s2.4,5.36,5.36,5.36c2.959-0.003,5.357-2.401,5.36-5.36   C21.36,13.04,18.96,10.64,16,10.64z M16,19.36c-1.856,0-3.36-1.504-3.36-3.36s1.504-3.36,3.36-3.36   c1.855,0.002,3.358,1.505,3.36,3.36C19.36,17.856,17.856,19.36,16,19.36z"/></g><text x="0" y="47" fill="#000000" font-size="5px" font-weight="bold" font-family="'Helvetica Neue', Helvetica, Arial-Unicode, Arial, Sans-serif">Created by Riyan Resdian</text><text x="0" y="52" fill="#000000" font-size="5px" font-weight="bold" font-family="'Helvetica Neue', Helvetica, Arial-Unicode, Arial, Sans-serif">from the Noun Project</text></svg>