<svg xmlns="http://www.w3.org/2000/svg" xmlns:xlink="http://www.w3.org/1999/xlink" version="1.1" x="0px" y="0px" viewBox="0 0 32 40" style="enable-background:new 0 0 32 32;" xml:space="preserve"><style type="text/css">
	.st0{fill:none;}
</style><g><g><path d="M29.38,5.48c-3.54-1.47-7.01-0.75-10.36-0.06c-1.43,0.3-2.78,0.58-4.14,0.7c-0.232,0.037-0.449,0.128-0.624,0.286    l-0.843,0.843l-0.91-0.91c-0.155-0.138-0.351-0.261-0.563-0.279c-0.72-0.11-1.43-0.3-2.12-0.58c-0.31-0.13-0.66-0.1-0.93,0.09    C8.61,5.75,8.44,6.07,8.44,6.4v5.16c0.33-0.04,0.66-0.06,1-0.06c4.66,0,8.44,3.79,8.44,8.44c0,0.45-0.03,0.88-0.1,1.31    c0.55-0.1,1.1-0.22,1.65-0.33c1.4-0.29,2.72-0.57,4.06-0.69c0.52-0.011,1.241-0.967,1.597-1.274    c0.332,0.271,1.132,1.324,1.593,1.354c0.01,0.01,0.02,0.01,0.03,0.01c0.63,0.1,1.27,0.28,1.91,0.54    c0.305,0.134,0.662,0.094,0.94-0.09c0.27-0.19,0.44-0.5,0.44-0.83V6.4C30,6,29.76,5.63,29.38,5.48z M20.88,14.99    c-0.26,0-0.51-0.1-0.71-0.29c-0.39-0.39-0.39-1.03,0-1.42l1.28-1.27l-1.28-1.28c-0.39-0.39-0.39-1.02,0-1.41    c0.39-0.39,1.02-0.39,1.41,0l1.28,1.27l1.27-1.27c0.4-0.39,1.03-0.39,1.42,0c0.39,0.39,0.39,1.02,0,1.41l-1.28,1.28l1.28,1.27    c0.39,0.39,0.39,1.03,0,1.42c-0.2,0.19-0.45,0.29-0.71,0.29c-0.25,0-0.51-0.1-0.71-0.29l-1.27-1.28l-1.28,1.28    C21.39,14.89,21.13,14.99,20.88,14.99z"/><path d="M9.44,12.5C5.34,12.5,2,15.84,2,19.94c0,4.1,3.34,7.44,7.44,7.44s7.44-3.34,7.44-7.44C16.88,15.84,13.54,12.5,9.44,12.5z     M12.88,17.72l-1.04,3.91c-0.1,0.34-0.37,0.61-0.71,0.71l-3.91,1.04c-0.334,0.109-0.71-0.009-0.96-0.26C6,22.87,5.91,22.5,6,22.16    l1.04-3.91c0.1-0.34,0.37-0.61,0.71-0.71l3.91-1.04c0.34-0.1,0.71,0,0.97,0.25C12.88,17.01,12.98,17.38,12.88,17.72z"/></g></g><text x="0" y="47" fill="#000000" font-size="5px" font-weight="bold" font-family="'Helvetica Neue', Helvetica, Arial-Unicode, Arial, Sans-serif">Created by Riyan Resdian</text><text x="0" y="52" fill="#000000" font-size="5px" font-weight="bold" font-family="'Helvetica Neue', Helvetica, Arial-Unicode, Arial, Sans-serif">from the Noun Project</text></svg>