<svg xmlns="http://www.w3.org/2000/svg" xmlns:xlink="http://www.w3.org/1999/xlink" version="1.1" x="0px" y="0px" viewBox="0 0 32 40" style="enable-background:new 0 0 32 32;" xml:space="preserve"><g><path d="M16,19.2c0.6,0,1-0.4,1-1c0-0.6-0.4-1-1-1h0c-0.6,0-1,0.5-1,1C15,18.8,15.5,19.2,16,19.2z"/><path d="M12.4,15.6l1.1,1.1c0.2,0.2,0.4,0.3,0.7,0.3v0c0.3,0,0.5-0.1,0.7-0.3c0.4-0.4,0.4-1,0-1.4l-1.1-1.1l1.1-1.1   c0.4-0.4,0.4-1,0-1.4c-0.4-0.4-1-0.4-1.4,0l-1.1,1.1l-1.1-1.1c-0.4-0.4-1-0.4-1.4,0c-0.4,0.4-0.4,1-0.1,1.4l1.1,1.1l-1.1,1.1   c-0.2,0.2-0.3,0.4-0.3,0.7c0,0.6,0.4,1,1,1c0.3,0,0.5-0.1,0.7-0.3L12.4,15.6z"/><path d="M16.9,16c0,0.6,0.4,1,1,1c0.3,0,0.5-0.1,0.7-0.3l1.1-1.1l1.1,1.1c0.2,0.2,0.4,0.3,0.7,0.3v0c0.3,0,0.5-0.1,0.7-0.3   c0.4-0.4,0.4-1,0-1.4l-1.1-1.1l1.1-1.1c0,0,0,0,0,0c0.4-0.4,0.4-1,0-1.4c-0.4-0.4-1-0.4-1.4,0l-1.1,1.1l-1.1-1.1   c-0.4-0.4-1-0.4-1.4,0c-0.4,0.4-0.4,1-0.1,1.4l1.1,1.1l-1.1,1.1C17,15.5,16.9,15.7,16.9,16z"/><path d="M29.6,22.7c-0.9-1.7-3.1-2.3-4.8-1.4l-1.9-1.9c1.3-1.4,2.1-3.3,2.1-5.3c0-1.1-0.2-2.1-0.6-3l0.4-0.4   c0.2,0.1,0.3,0.2,0.5,0.2c1.8,0.6,3.8-0.3,4.5-2.1C30.4,7,29.5,5,27.7,4.3c-0.1-0.2-0.2-0.4-0.3-0.6c-1-1.7-3.1-2.3-4.8-1.3   c-1.7,1-2.3,3.1-1.3,4.8l-0.2,0.2c-1.4-0.9-3.2-1.4-5.1-1.4c-1.9,0-3.6,0.5-5.1,1.4l-0.2-0.2c0.1-0.2,0.2-0.3,0.2-0.5   c0.6-1.8-0.3-3.8-2.1-4.5S5,2.5,4.3,4.3C3.8,4.5,3.4,4.8,3,5.2C1.9,6.2,1.7,7.9,2.4,9.3c0.9,1.7,3.1,2.3,4.8,1.4l0.4,0.4   c-0.4,0.9-0.6,1.9-0.6,3c0,2,0.8,3.8,2.1,5.2l-1.9,1.9c-0.2-0.1-0.3-0.2-0.5-0.2c-1.8-0.6-3.8,0.3-4.5,2.1C1.6,25,2.5,27,4.3,27.7   c0.2,0.5,0.5,0.9,0.8,1.3c0.7,0.7,1.5,1,2.5,1c0.6,0,1.2-0.1,1.7-0.4c1.7-0.9,2.3-3,1.4-4.7l0.2-0.2c0.4,0.8,1.2,1.4,2.2,1.4h5.8   c0,0,0,0,0,0c1,0,1.8-0.6,2.2-1.4l0.2,0.2c-0.3,0.5-0.4,1.1-0.4,1.7c0,1.9,1.6,3.5,3.5,3.5c1.5,0,2.8-0.9,3.3-2.3   c0.2-0.1,0.3-0.1,0.5-0.2C29.9,26.6,30.5,24.4,29.6,22.7z M23.2,4.6c0.5-0.6,1.5-0.7,2.1-0.2c-0.1,0-0.2,0.1-0.3,0.1   c-0.5,0.2-0.7,0.8-0.5,1.3s0.8,0.7,1.3,0.5c0.2-0.1,0.5-0.1,0.8-0.1c0,0,0,0,0,0c0.3,0,0.6,0.2,0.8,0.4c0.6,0.6,0.6,1.5,0,2.1   c-0.6,0.6-1.5,0.6-2.1,0c-0.1-0.1-0.1-0.1-0.2-0.2c-0.4-0.2-0.9-0.1-1.1,0.2l-0.7,0.7c-0.2-0.3-0.4-0.5-0.7-0.7L23.3,8   c0.4-0.4,0.4-1,0-1.4l0,0C22.8,6,22.7,5.2,23.2,4.6z M8,8.7C7.8,8.5,7.4,8.4,7.1,8.4c-0.5,0-0.8,0.7-1.4,0.7C4.9,9.2,4.2,8.7,4,7.9   C3.9,7,4.5,6.3,5.3,6.1h0c0.3,0,0.5,0,0.8,0.1c0.5,0.2,1.1-0.1,1.3-0.6c0.2-0.5,0-1.1-0.5-1.3c0,0-0.1,0-0.1,0   c0.6-0.5,1.4-0.4,2,0.1C9.3,5,9.3,6,8.7,6.6l0,0C8.3,7,8.3,7.6,8.7,8l0.7,0.7C9.1,8.9,8.9,9.1,8.7,9.4L8,8.7z M16,7.9   c3.6,0,7,2.6,7,6.2c0,1.8-0.9,3.6-2.4,4.7c-0.4,0.3-0.7,0.7-0.9,1.1c-0.4,0.1-0.9,0.2-1.3,0.3c-1.6,0.2-3.2,0.2-4.7,0   c-0.5-0.1-0.9-0.2-1.4-0.3c-0.3-0.6-0.8-1.2-1.4-1.5C9.7,17.3,9,15.8,9,14.2C9,10.7,12.1,7.9,16,7.9z M8.8,23.9   c-0.5,0.4-0.5,1.1-0.1,1.5c0.4,0.5,0.5,1.3,0.1,1.8c-0.5,0.7-1.4,0.9-2.1,0.4c0,0,0.1,0,0.1,0c0.5-0.2,0.7-0.8,0.6-1.3   c-0.2-0.5-0.8-0.8-1.3-0.6c-0.5,0.2-1.2,0.1-1.6-0.3c-0.6-0.6-0.6-1.5,0-2.1c0.6-0.6,1.5-0.6,2.1,0c0.3,0.3,0.7,0.4,1,0.2   c0.2,0,0.3-0.1,0.4-0.2l2.5-2.5c0.1,0.2,0.1,0.4,0.2,0.6v0.7L8.8,23.9z M18.9,24.1h-5.8c-0.2,0-0.5-0.2-0.5-0.4c0,0,0-1.4,0-1.5   c0.2,0,0.5,0.1,0.7,0.1c0.9,0.1,1.8,0.2,2.7,0.2c0.9,0,1.8-0.1,2.7-0.2c0.2,0,0.4-0.1,0.7-0.1c0,0.1,0,1.5,0,1.5   C19.4,23.9,19.2,24.1,18.9,24.1z M26.7,25.9c-0.3,0-0.5,0-0.8-0.1c-0.5-0.2-1.1,0.1-1.3,0.6c-0.2,0.5,0,1.1,0.5,1.3l0.1,0   c-0.6,0.5-1.4,0.4-2-0.1c-0.6-0.6-0.6-1.5,0-2.1c0.4-0.4,0.4-1.1,0-1.5l-1.9-1.9v-0.7c0-0.2,0.1-0.4,0.1-0.5l2.5,2.5   c0.4,0.4,1,0.3,1.4,0c0.2-0.2,0.5-0.4,0.8-0.4c0.8-0.1,1.6,0.4,1.7,1.3C28.1,25,27.5,25.7,26.7,25.9z"/></g><text x="0" y="47" fill="#000000" font-size="5px" font-weight="bold" font-family="'Helvetica Neue', Helvetica, Arial-Unicode, Arial, Sans-serif">Created by Riyan Resdian</text><text x="0" y="52" fill="#000000" font-size="5px" font-weight="bold" font-family="'Helvetica Neue', Helvetica, Arial-Unicode, Arial, Sans-serif">from the Noun Project</text></svg>