<svg xmlns="http://www.w3.org/2000/svg" xmlns:xlink="http://www.w3.org/1999/xlink" version="1.1" x="0px" y="0px" viewBox="0 0 32 40" style="enable-background:new 0 0 32 32;" xml:space="preserve"><g><path d="M27.062,10.231l-4.776-0.694c-0.465-0.067-0.868-0.359-1.076-0.781l-2.135-4.327c-0.334-0.676-0.881-1.224-1.558-1.558   c-1.698-0.838-3.754-0.141-4.592,1.558L10.79,8.755c-0.208,0.422-0.611,0.715-1.077,0.782l-4.775,0.694   c-2.743,0.326-3.942,3.97-1.9,5.849l3.452,3.368c0.337,0.328,0.49,0.802,0.41,1.265l-0.812,4.756   c-0.369,2.066,1.276,4.026,3.377,4.012c0.558,0,1.107-0.137,1.6-0.398l4.271-2.245c0.416-0.219,0.914-0.219,1.33,0l4.271,2.245   c0.667,0.351,1.432,0.472,2.175,0.345c1.867-0.32,3.12-2.092,2.801-3.959l-0.817-4.757c-0.079-0.463,0.075-0.936,0.412-1.264   l3.454-3.368c0.541-0.527,0.893-1.218,1.002-1.965C30.235,12.241,28.936,10.502,27.062,10.231z M21.863,27.313l-4.271-2.245   c-0.999-0.526-2.193-0.526-3.192,0l-4.267,2.245c-0.279,0.147-0.598,0.197-0.908,0.144c-0.777-0.134-1.299-0.873-1.165-1.65   l0.815-4.756c0.192-1.112-0.177-2.247-0.985-3.035l-3.457-3.369c-0.226-0.22-0.373-0.508-0.418-0.821   c-0.112-0.781,0.43-1.504,1.211-1.616L10,11.517c1.117-0.162,2.083-0.864,2.583-1.876l2.135-4.324   c0.234-0.494,0.735-0.807,1.282-0.8c0.546-0.007,1.046,0.304,1.281,0.796l2.137,4.328c0.5,1.012,1.465,1.713,2.582,1.876   l4.769,0.693c0.313,0.045,0.602,0.192,0.822,0.419c0.549,0.566,0.536,1.47-0.03,2.019l-3.454,3.368   c-0.809,0.787-1.178,1.923-0.987,3.035l0.816,4.756c0.054,0.31,0.003,0.63-0.144,0.908C23.424,27.413,22.561,27.681,21.863,27.313z   "/></g><text x="0" y="47" fill="#000000" font-size="5px" font-weight="bold" font-family="'Helvetica Neue', Helvetica, Arial-Unicode, Arial, Sans-serif">Created by Riyan Resdian</text><text x="0" y="52" fill="#000000" font-size="5px" font-weight="bold" font-family="'Helvetica Neue', Helvetica, Arial-Unicode, Arial, Sans-serif">from the Noun Project</text></svg>